# xmcd
#
# Track frame offsets:
#	150
#	26503
#	54032
#	81981
#	86909
#	109670
#	135125
#	153801
#	163851
#	198838
#	249814
#
# Disc length: 3485 seconds
#
# Revision: 1
# Processed by: cddbd v1.5.2PL0 Copyright (c) Steve Scherf et al.
# Submitted via: EZCDAudioConverter 1.3.4.1
#
DISCID=760d9b0b
DTITLE=John Martyn - Live At The Hanging Lamp 1972
DYEAR=2013
DGENRE=
TTITLE0=The Easy Blues
TTITLE1=Bless The Weather
TTITLE2=May You Never
TTITLE3=Don't Think Twice, It's All Right
TTITLE4=Back To Stay
TTITLE5=Head And Heart
TTITLE6=Singin' In The Rain
TTITLE7=Sugar Lump
TTITLE8=I'd Rather Be The Devil
TTITLE9=Outside In
TTITLE10=The Glory Of Love
EXTD=
EXTT0=
EXTT1=
EXTT2=
EXTT3=
EXTT4=
EXTT5=
EXTT6=
EXTT7=
EXTT8=
EXTT9=
EXTT10=
PLAYORDER=
